<?xml version="1.0" encoding="iso-8859-1"?>
<!-- Generator: Adobe Illustrator 19.0.0, SVG Export Plug-In . SVG Version: 6.00 Build 0)  -->
<svg version="1.1" id="Layer_1" xmlns="http://www.w3.org/2000/svg" xmlns:xlink="http://www.w3.org/1999/xlink" x="0px" y="0px"
	 viewBox="0 0 512 512" style="enable-background:new 0 0 512 512;" xml:space="preserve">
<g>
	<g>
		<path d="M256,121.059c-70.42,0-127.71,57.289-127.71,127.709s57.29,127.71,127.71,127.71s127.71-57.29,127.71-127.71
			S326.42,121.059,256,121.059z M274.305,262.16L274.305,262.16l-41.831,67.347l-28.369-17.621l36.804-59.254v-76.464h33.396V262.16
			z"/>
	</g>
</g>
<g>
	<g>
		<path d="M493.628,65.651c-30.104-39.561-86.778-47.258-126.339-17.156l-5.179,3.94C330.532,35.3,294.383,25.56,256,25.56
			c-38.382,0-74.532,9.741-106.109,26.875l-5.178-3.94c-19.164-14.582-42.857-20.829-66.724-17.588
			c-23.863,3.241-45.035,15.579-59.617,34.743c-30.101,39.563-22.406,96.237,17.156,126.34l3.846,2.927
			c-4.29,17.254-6.582,35.288-6.582,53.849c0,77.18,39.38,145.331,99.097,185.431l-23.035,33.205l27.44,19.036l24.761-35.694
			c28.828,13.606,61.011,21.231,94.945,21.231c34.69,0,67.555-7.957,96.872-22.137l25.39,36.601l27.441-19.036l-23.856-34.389
			c58.741-40.249,97.36-107.819,97.36-184.248c0-18.562-2.292-36.596-6.582-53.849l3.846-2.927
			C516.033,161.89,523.729,105.213,493.628,65.651z M256,409.873c-88.834,0-161.106-72.272-161.106-161.106
			c0-88.833,72.272-161.105,161.106-161.105s161.106,72.271,161.106,161.105S344.835,409.873,256,409.873z"/>
	</g>
</g>
<g>
</g>
<g>
</g>
<g>
</g>
<g>
</g>
<g>
</g>
<g>
</g>
<g>
</g>
<g>
</g>
<g>
</g>
<g>
</g>
<g>
</g>
<g>
</g>
<g>
</g>
<g>
</g>
<g>
</g>
</svg>
