<?xml version="1.0" encoding="utf-8"?>
<!-- Generator: Adobe Illustrator 25.0.1, SVG Export Plug-In . SVG Version: 6.00 Build 0)  -->
<svg version="1.1" id="Layer_1" xmlns="http://www.w3.org/2000/svg" xmlns:xlink="http://www.w3.org/1999/xlink" x="0px" y="0px"
	 viewBox="0 0 73.95 39.06" style="enable-background:new 0 0 73.95 39.06;" xml:space="preserve">
<style type="text/css">
	.st0{fill:#1D98FF;}
	.st1{fill:#FFFFFF;}
	.st2{fill:#16264D;}
	.st3{fill:#152649;}
</style>
<text transform="matrix(1 0 0 1 -501.0673 -121.307)" style="fill:#122649; font-family:'WallopTRIAL-Bold'; font-size:48px;">Multiverse</text>
<text transform="matrix(1 0 0 1 -503.3407 -66.4782)" class="st3" style="font-family:'HelveticaNeueLT-85Hv'; font-size:48px;">Multiverse</text>
<text transform="matrix(1 0 0 1 -503.3407 0.0224)" class="st3" style="font-family:'HelveticaNeueLT-85Hv'; font-size:48px;">MV</text>
<g>
	<path class="st0" d="M7.23-32.9v-31.05h11.92l5.35,20.7h0.09l5.35-20.7h11.92v31.05h-7.61v-23.57h-0.09L27.63-32.9h-6.18
		l-6.52-23.57h-0.09v23.57H7.23z"/>
	<path class="st0" d="M69.6-55.48v22.57h-7.18v-3.09h-0.09c-0.7,1.13-1.68,2.04-2.96,2.72c-1.28,0.68-2.58,1.02-3.92,1.02
		c-3.07,0-5.23-0.82-6.48-2.46c-1.25-1.64-1.87-4.04-1.87-7.2v-13.57h7.39v13.09c0,1.45,0.3,2.49,0.89,3.11
		c0.59,0.62,1.51,0.94,2.76,0.94c1.01,0,1.94-0.39,2.78-1.17c0.84-0.78,1.26-2.07,1.26-3.87v-12.09H69.6z"/>
	<path class="st0" d="M74.82-32.9v-31.05h7.39v31.05H74.82z"/>
	<path class="st0" d="M101.05-55.48v4.78h-4.57v10.26c0,0.84,0.22,1.41,0.65,1.72c0.43,0.3,1.1,0.46,2,0.46
		c0.23,0,0.55-0.01,0.96-0.04c0.41-0.03,0.72-0.04,0.96-0.04v5.44c-0.35,0-0.99,0.04-1.91,0.11S97.5-32.68,97-32.68
		c-3.13,0-5.23-0.56-6.31-1.67c-1.07-1.12-1.61-3.21-1.61-6.29v-10.05h-3.74v-4.78h3.74v-6.83h7.39v6.83H101.05z"/>
	<path class="st0" d="M112.01-63.96v5.65h-7.39v-5.65H112.01z M104.61-32.9v-22.57h7.39v22.57H104.61z"/>
	<path class="st0" d="M138.23-55.48l-7.57,22.57h-8.53l-7.52-22.57h7.7l4.13,14.92h0.09l4.17-14.92H138.23z"/>
	<path class="st0" d="M163.46-42.38h-16.57c0.06,1.59,0.53,2.85,1.41,3.76c0.88,0.91,2.09,1.37,3.63,1.37
		c0.96,0,1.82-0.21,2.59-0.63c0.77-0.42,1.31-1.04,1.63-1.85h6.92c-0.67,2.49-2.03,4.36-4.09,5.61s-4.44,1.87-7.13,1.87
		c-3.74,0-6.73-1.07-8.98-3.2c-2.25-2.13-3.37-5.07-3.37-8.81c0-3.42,1.18-6.26,3.54-8.5s5.24-3.37,8.63-3.37
		c3.91,0,6.9,1.29,8.96,3.87C162.69-49.68,163.64-46.39,163.46-42.38z M146.89-46.52h9.18c-0.06-1.3-0.5-2.4-1.33-3.28
		c-0.83-0.88-1.85-1.33-3.07-1.33c-1.28,0-2.33,0.41-3.17,1.24C147.66-49.06,147.12-47.94,146.89-46.52z"/>
	<path class="st0" d="M167.42-32.9v-22.57h7.18v3.96h0.09c1.1-2.93,3.36-4.39,6.79-4.39c0.67,0,1.25,0.06,1.74,0.17V-49
		c-0.96-0.29-1.9-0.43-2.83-0.43c-1.74,0-3.1,0.51-4.09,1.54c-0.99,1.03-1.48,2.3-1.48,3.81v11.18H167.42z"/>
	<path class="st0" d="M184.38-40.34h7.05c0,1.07,0.41,1.91,1.22,2.52c0.7,0.52,1.61,0.78,2.74,0.78c0.84,0,1.63-0.2,2.37-0.61
		c0.74-0.41,1.11-1,1.11-1.78c0-0.35-0.07-0.64-0.22-0.89c-0.15-0.25-0.39-0.46-0.74-0.63c-0.35-0.17-0.62-0.3-0.8-0.37
		c-0.19-0.07-0.53-0.17-1.02-0.28c-0.49-0.12-0.77-0.19-0.83-0.22c-0.46-0.12-1.25-0.29-2.35-0.52c-1.1-0.23-1.93-0.42-2.48-0.57
		c-0.55-0.14-1.25-0.4-2.11-0.76c-0.86-0.36-1.49-0.76-1.91-1.2c-0.42-0.43-0.8-1.02-1.13-1.76c-0.33-0.74-0.5-1.6-0.5-2.59
		c0-1.28,0.32-2.38,0.96-3.33c0.64-0.94,1.49-1.66,2.54-2.15c1.06-0.49,2.15-0.86,3.28-1.09c1.13-0.23,2.31-0.35,3.52-0.35
		c1.33,0,2.57,0.11,3.7,0.33c1.13,0.22,2.21,0.59,3.24,1.11c1.03,0.52,1.85,1.28,2.46,2.28c0.61,1,0.94,2.2,1,3.59h-6.83
		c0-0.93-0.32-1.58-0.96-1.96c-0.55-0.38-1.33-0.57-2.35-0.57c-2.12,0-3.17,0.57-3.17,1.7c0,0.41,0.16,0.76,0.48,1.07
		c0.32,0.3,0.83,0.57,1.54,0.8c0.71,0.23,1.33,0.41,1.85,0.52c0.52,0.12,1.31,0.28,2.37,0.48c1.06,0.2,1.76,0.33,2.11,0.39
		c1.39,0.29,2.54,0.82,3.46,1.59c0.91,0.77,1.52,1.53,1.83,2.28c0.3,0.75,0.46,1.49,0.46,2.22c0,1.91-0.57,3.49-1.7,4.74
		c-1.13,1.25-2.47,2.11-4.02,2.59s-3.25,0.72-5.11,0.72c-1.97,0-3.73-0.22-5.26-0.67c-1.54-0.45-2.87-1.3-4-2.54
		C185.03-36.71,184.44-38.34,184.38-40.34z"/>
	<path class="st0" d="M232.75-42.38h-16.57c0.06,1.59,0.53,2.85,1.41,3.76c0.88,0.91,2.09,1.37,3.63,1.37
		c0.96,0,1.82-0.21,2.59-0.63c0.77-0.42,1.31-1.04,1.63-1.85h6.92c-0.67,2.49-2.03,4.36-4.09,5.61s-4.44,1.87-7.13,1.87
		c-3.74,0-6.73-1.07-8.98-3.2c-2.25-2.13-3.37-5.07-3.37-8.81c0-3.42,1.18-6.26,3.54-8.5s5.24-3.37,8.63-3.37
		c3.91,0,6.9,1.29,8.96,3.87C231.98-49.68,232.92-46.39,232.75-42.38z M216.18-46.52h9.18c-0.06-1.3-0.5-2.4-1.33-3.28
		c-0.83-0.88-1.85-1.33-3.07-1.33c-1.28,0-2.33,0.41-3.17,1.24C216.94-49.06,216.41-47.94,216.18-46.52z"/>
</g>
<g>
	<path class="st1" d="M7.23-89.87v-31.05h11.92l5.35,20.7h0.09l5.35-20.7h11.92v31.05h-7.61v-23.57h-0.09l-6.52,23.57h-6.18
		l-6.52-23.57h-0.09v23.57H7.23z"/>
	<path class="st1" d="M69.6-112.45v22.57h-7.18v-3.09h-0.09c-0.7,1.13-1.68,2.04-2.96,2.72c-1.28,0.68-2.58,1.02-3.92,1.02
		c-3.07,0-5.23-0.82-6.48-2.46c-1.25-1.64-1.87-4.04-1.87-7.2v-13.57h7.39v13.09c0,1.45,0.3,2.49,0.89,3.11
		c0.59,0.62,1.51,0.94,2.76,0.94c1.01,0,1.94-0.39,2.78-1.17c0.84-0.78,1.26-2.07,1.26-3.87v-12.09H69.6z"/>
	<path class="st1" d="M74.82-89.87v-31.05h7.39v31.05H74.82z"/>
	<path class="st1" d="M101.05-112.45v4.78h-4.57v10.26c0,0.84,0.22,1.41,0.65,1.72c0.43,0.3,1.1,0.46,2,0.46
		c0.23,0,0.55-0.01,0.96-0.04c0.41-0.03,0.72-0.04,0.96-0.04v5.44c-0.35,0-0.99,0.04-1.91,0.11S97.5-89.65,97-89.65
		c-3.13,0-5.23-0.56-6.31-1.67c-1.07-1.12-1.61-3.21-1.61-6.29v-10.05h-3.74v-4.78h3.74v-6.83h7.39v6.83H101.05z"/>
	<path class="st1" d="M112.01-120.93v5.65h-7.39v-5.65H112.01z M104.61-89.87v-22.57h7.39v22.57H104.61z"/>
	<path class="st1" d="M138.23-112.45l-7.57,22.57h-8.53l-7.52-22.57h7.7l4.13,14.92h0.09l4.17-14.92H138.23z"/>
	<path class="st1" d="M163.46-99.35h-16.57c0.06,1.59,0.53,2.85,1.41,3.76c0.88,0.91,2.09,1.37,3.63,1.37
		c0.96,0,1.82-0.21,2.59-0.63c0.77-0.42,1.31-1.04,1.63-1.85h6.92c-0.67,2.49-2.03,4.36-4.09,5.61s-4.44,1.87-7.13,1.87
		c-3.74,0-6.73-1.07-8.98-3.2c-2.25-2.13-3.37-5.07-3.37-8.81c0-3.42,1.18-6.26,3.54-8.5s5.24-3.37,8.63-3.37
		c3.91,0,6.9,1.29,8.96,3.87C162.69-106.65,163.64-103.36,163.46-99.35z M146.89-103.49h9.18c-0.06-1.3-0.5-2.4-1.33-3.28
		c-0.83-0.88-1.85-1.33-3.07-1.33c-1.28,0-2.33,0.41-3.17,1.24C147.66-106.03,147.12-104.91,146.89-103.49z"/>
	<path class="st1" d="M167.42-89.87v-22.57h7.18v3.96h0.09c1.1-2.93,3.36-4.39,6.79-4.39c0.67,0,1.25,0.06,1.74,0.17v6.74
		c-0.96-0.29-1.9-0.43-2.83-0.43c-1.74,0-3.1,0.51-4.09,1.54c-0.99,1.03-1.48,2.3-1.48,3.81v11.18H167.42z"/>
	<path class="st1" d="M184.38-97.31h7.05c0,1.07,0.41,1.91,1.22,2.52c0.7,0.52,1.61,0.78,2.74,0.78c0.84,0,1.63-0.2,2.37-0.61
		c0.74-0.41,1.11-1,1.11-1.78c0-0.35-0.07-0.64-0.22-0.89c-0.15-0.25-0.39-0.46-0.74-0.63c-0.35-0.17-0.62-0.3-0.8-0.37
		c-0.19-0.07-0.53-0.17-1.02-0.28c-0.49-0.12-0.77-0.19-0.83-0.22c-0.46-0.12-1.25-0.29-2.35-0.52c-1.1-0.23-1.93-0.42-2.48-0.57
		c-0.55-0.14-1.25-0.4-2.11-0.76c-0.86-0.36-1.49-0.76-1.91-1.2c-0.42-0.43-0.8-1.02-1.13-1.76c-0.33-0.74-0.5-1.6-0.5-2.59
		c0-1.28,0.32-2.38,0.96-3.33c0.64-0.94,1.49-1.66,2.54-2.15c1.06-0.49,2.15-0.86,3.28-1.09c1.13-0.23,2.31-0.35,3.52-0.35
		c1.33,0,2.57,0.11,3.7,0.33c1.13,0.22,2.21,0.59,3.24,1.11c1.03,0.52,1.85,1.28,2.46,2.28c0.61,1,0.94,2.2,1,3.59h-6.83
		c0-0.93-0.32-1.58-0.96-1.96c-0.55-0.38-1.33-0.57-2.35-0.57c-2.12,0-3.17,0.57-3.17,1.7c0,0.41,0.16,0.76,0.48,1.07
		c0.32,0.3,0.83,0.57,1.54,0.8c0.71,0.23,1.33,0.41,1.85,0.52c0.52,0.12,1.31,0.28,2.37,0.48c1.06,0.2,1.76,0.33,2.11,0.39
		c1.39,0.29,2.54,0.82,3.46,1.59c0.91,0.77,1.52,1.53,1.83,2.28c0.3,0.75,0.46,1.49,0.46,2.22c0,1.91-0.57,3.49-1.7,4.74
		c-1.13,1.25-2.47,2.11-4.02,2.59s-3.25,0.72-5.11,0.72c-1.97,0-3.73-0.22-5.26-0.67c-1.54-0.45-2.87-1.3-4-2.54
		C185.03-93.68,184.44-95.31,184.38-97.31z"/>
	<path class="st1" d="M232.75-99.35h-16.57c0.06,1.59,0.53,2.85,1.41,3.76c0.88,0.91,2.09,1.37,3.63,1.37
		c0.96,0,1.82-0.21,2.59-0.63c0.77-0.42,1.31-1.04,1.63-1.85h6.92c-0.67,2.49-2.03,4.36-4.09,5.61s-4.44,1.87-7.13,1.87
		c-3.74,0-6.73-1.07-8.98-3.2c-2.25-2.13-3.37-5.07-3.37-8.81c0-3.42,1.18-6.26,3.54-8.5s5.24-3.37,8.63-3.37
		c3.91,0,6.9,1.29,8.96,3.87C231.98-106.65,232.92-103.36,232.75-99.35z M216.18-103.49h9.18c-0.06-1.3-0.5-2.4-1.33-3.28
		c-0.83-0.88-1.85-1.33-3.07-1.33c-1.28,0-2.33,0.41-3.17,1.24C216.94-106.03,216.41-104.91,216.18-103.49z"/>
</g>
<g>
	<path class="st2" d="M7.23-148.76v-31.05h11.92l5.35,20.7h0.09l5.35-20.7h11.92v31.05h-7.61v-23.57h-0.09l-6.52,23.57h-6.18
		l-6.52-23.57h-0.09v23.57H7.23z"/>
	<path class="st2" d="M69.6-171.33v22.57h-7.18v-3.09h-0.09c-0.7,1.13-1.68,2.04-2.96,2.72c-1.28,0.68-2.58,1.02-3.92,1.02
		c-3.07,0-5.23-0.82-6.48-2.46c-1.25-1.64-1.87-4.04-1.87-7.2v-13.57h7.39v13.09c0,1.45,0.3,2.49,0.89,3.11
		c0.59,0.62,1.51,0.94,2.76,0.94c1.01,0,1.94-0.39,2.78-1.17c0.84-0.78,1.26-2.07,1.26-3.87v-12.09H69.6z"/>
	<path class="st2" d="M74.82-148.76v-31.05h7.39v31.05H74.82z"/>
	<path class="st2" d="M101.05-171.33v4.78h-4.57v10.26c0,0.84,0.22,1.41,0.65,1.72c0.43,0.3,1.1,0.46,2,0.46
		c0.23,0,0.55-0.01,0.96-0.04c0.41-0.03,0.72-0.04,0.96-0.04v5.44c-0.35,0-0.99,0.04-1.91,0.11s-1.64,0.11-2.13,0.11
		c-3.13,0-5.23-0.56-6.31-1.67c-1.07-1.12-1.61-3.21-1.61-6.29v-10.05h-3.74v-4.78h3.74v-6.83h7.39v6.83H101.05z"/>
	<path class="st2" d="M112.01-179.82v5.65h-7.39v-5.65H112.01z M104.61-148.76v-22.57h7.39v22.57H104.61z"/>
	<path class="st2" d="M138.23-171.33l-7.57,22.57h-8.53l-7.52-22.57h7.7l4.13,14.92h0.09l4.17-14.92H138.23z"/>
	<path class="st2" d="M163.46-158.24h-16.57c0.06,1.59,0.53,2.85,1.41,3.76c0.88,0.91,2.09,1.37,3.63,1.37
		c0.96,0,1.82-0.21,2.59-0.63c0.77-0.42,1.31-1.04,1.63-1.85h6.92c-0.67,2.49-2.03,4.36-4.09,5.61s-4.44,1.87-7.13,1.87
		c-3.74,0-6.73-1.07-8.98-3.2c-2.25-2.13-3.37-5.07-3.37-8.81c0-3.42,1.18-6.26,3.54-8.5s5.24-3.37,8.63-3.37
		c3.91,0,6.9,1.29,8.96,3.87C162.69-165.54,163.64-162.25,163.46-158.24z M146.89-162.38h9.18c-0.06-1.3-0.5-2.4-1.33-3.28
		c-0.83-0.88-1.85-1.33-3.07-1.33c-1.28,0-2.33,0.41-3.17,1.24C147.66-164.92,147.12-163.8,146.89-162.38z"/>
	<path class="st2" d="M167.42-148.76v-22.57h7.18v3.96h0.09c1.1-2.93,3.36-4.39,6.79-4.39c0.67,0,1.25,0.06,1.74,0.17v6.74
		c-0.96-0.29-1.9-0.43-2.83-0.43c-1.74,0-3.1,0.51-4.09,1.54c-0.99,1.03-1.48,2.3-1.48,3.81v11.18H167.42z"/>
	<path class="st2" d="M184.38-156.2h7.05c0,1.07,0.41,1.91,1.22,2.52c0.7,0.52,1.61,0.78,2.74,0.78c0.84,0,1.63-0.2,2.37-0.61
		c0.74-0.41,1.11-1,1.11-1.78c0-0.35-0.07-0.64-0.22-0.89c-0.15-0.25-0.39-0.46-0.74-0.63c-0.35-0.17-0.62-0.3-0.8-0.37
		c-0.19-0.07-0.53-0.17-1.02-0.28c-0.49-0.12-0.77-0.19-0.83-0.22c-0.46-0.12-1.25-0.29-2.35-0.52c-1.1-0.23-1.93-0.42-2.48-0.57
		c-0.55-0.14-1.25-0.4-2.11-0.76c-0.86-0.36-1.49-0.76-1.91-1.2c-0.42-0.43-0.8-1.02-1.13-1.76c-0.33-0.74-0.5-1.6-0.5-2.59
		c0-1.28,0.32-2.38,0.96-3.33c0.64-0.94,1.49-1.66,2.54-2.15c1.06-0.49,2.15-0.86,3.28-1.09c1.13-0.23,2.31-0.35,3.52-0.35
		c1.33,0,2.57,0.11,3.7,0.33c1.13,0.22,2.21,0.59,3.24,1.11c1.03,0.52,1.85,1.28,2.46,2.28c0.61,1,0.94,2.2,1,3.59h-6.83
		c0-0.93-0.32-1.58-0.96-1.96c-0.55-0.38-1.33-0.57-2.35-0.57c-2.12,0-3.17,0.57-3.17,1.7c0,0.41,0.16,0.76,0.48,1.07
		c0.32,0.3,0.83,0.57,1.54,0.8c0.71,0.23,1.33,0.41,1.85,0.52c0.52,0.12,1.31,0.28,2.37,0.48c1.06,0.2,1.76,0.33,2.11,0.39
		c1.39,0.29,2.54,0.82,3.46,1.59c0.91,0.77,1.52,1.53,1.83,2.28c0.3,0.75,0.46,1.49,0.46,2.22c0,1.91-0.57,3.49-1.7,4.74
		c-1.13,1.25-2.47,2.11-4.02,2.59s-3.25,0.72-5.11,0.72c-1.97,0-3.73-0.22-5.26-0.67c-1.54-0.45-2.87-1.3-4-2.54
		C185.03-152.57,184.44-154.2,184.38-156.2z"/>
	<path class="st2" d="M232.75-158.24h-16.57c0.06,1.59,0.53,2.85,1.41,3.76c0.88,0.91,2.09,1.37,3.63,1.37
		c0.96,0,1.82-0.21,2.59-0.63c0.77-0.42,1.31-1.04,1.63-1.85h6.92c-0.67,2.49-2.03,4.36-4.09,5.61s-4.44,1.87-7.13,1.87
		c-3.74,0-6.73-1.07-8.98-3.2c-2.25-2.13-3.37-5.07-3.37-8.81c0-3.42,1.18-6.26,3.54-8.5s5.24-3.37,8.63-3.37
		c3.91,0,6.9,1.29,8.96,3.87C231.98-165.54,232.92-162.25,232.75-158.24z M216.18-162.38h9.18c-0.06-1.3-0.5-2.4-1.33-3.28
		c-0.83-0.88-1.85-1.33-3.07-1.33c-1.28,0-2.33,0.41-3.17,1.24C216.94-164.92,216.41-163.8,216.18-162.38z"/>
</g>
<text transform="matrix(1 0 0 1 -234.1567 -131.8826)" style="fill:#231F20; font-family:'HelveticaNeueLT-75Bd'; font-size:9px;">Wallop (Saffron font)</text>
<text transform="matrix(1 0 0 1 -234.1567 -14.1033)" style="fill:#231F20; font-family:'HelveticaNeueLT-75Bd'; font-size:9px;">Icon</text>
<text transform="matrix(1 0 0 1 -234.1567 -74.2058)" style="fill:#231F20; font-family:'HelveticaNeueLT-75Bd'; font-size:9px;">Helvetica Neue (Old WhiteHat logo font)</text>
<g>
	<path class="st3" d="M3.92,35.06V4h11.92l5.35,20.7h0.09L26.62,4h11.92v31.05h-7.61V11.48h-0.09l-6.52,23.57h-6.18l-6.52-23.57
		h-0.09v23.57H3.92z"/>
	<path class="st3" d="M70.03,4L59.98,35.06h-9.31L40.89,4h8.44l6.09,23.1h0.09L61.59,4H70.03z"/>
</g>
</svg>
